<svg xmlns="http://www.w3.org/2000/svg" version="1.1" xmlns:xlink="http://www.w3.org/1999/xlink" xmlns:svgjs="http://svgjs.dev/svgjs" width="1000" height="623" viewBox="0 0 1000 623"><g transform="matrix(1,0,0,1,-0.6060606060606233,0.2522267206477409)"><svg viewBox="0 0 396 247" data-background-color="#ed2647" preserveAspectRatio="xMidYMid meet" height="623" width="1000" xmlns="http://www.w3.org/2000/svg" xmlns:xlink="http://www.w3.org/1999/xlink"><g id="tight-bounds" transform="matrix(1,0,0,1,0.2400000000000091,-0.09999999999999432)"><svg viewBox="0 0 395.52 247.2" height="247.2" width="395.52"><g><svg></svg></g><g><svg viewBox="0 0 395.52 247.2" height="247.2" width="395.52"><g transform="matrix(1,0,0,1,75.54432,93.23585590062112)"><svg viewBox="0 0 244.43135999999998 60.72828819875777" height="60.72828819875777" width="244.43135999999998"><g><svg viewBox="0 0 244.43135999999998 60.72828819875777" height="60.72828819875777" width="244.43135999999998"><g><svg viewBox="0 0 244.43135999999998 60.72828819875777" height="60.72828819875777" width="244.43135999999998"><g><svg viewBox="0 0 244.43135999999998 60.72828819875777" height="60.72828819875777" width="244.43135999999998"><g><svg viewBox="0 0 244.43135999999998 60.72828819875777" height="60.72828819875777" width="244.43135999999998"><g><svg viewBox="0 0 244.43135999999998 60.72828819875777" height="60.72828819875777" width="244.43135999999998"><g transform="matrix(1,0,0,1,0,0)"><svg width="244.43135999999998" viewBox="0.5 -37.5 152.94000244140625 38" height="60.72828819875777" data-palette-color="#ff908b"><path d="M28.85 0L10.45 0 10.45-0.8 14.9-2.9 14.9-15.4 4.1-30.1 0.5-32.2 0.5-33 18.15-33 18.15-32.2 14.3-30.25 14.3-30.05 22.85-18.55 30.5-29.95 30.5-30.15 26.5-32.2 26.5-33 38.4-33 38.4-32.2 34.95-30.55 24.4-15.4 24.4-2.9 28.85-0.8 28.85 0ZM51.45 0.5L51.45 0.5Q48.2 0.5 45.72-0.85 43.25-2.2 41.82-4.67 40.4-7.15 40.4-10.45L40.4-10.45Q40.4-14.3 42-17.23 43.6-20.15 46.57-21.83 49.55-23.5 53.65-23.5L53.65-23.5Q56.15-23.5 58.05-22.85 59.95-22.2 60.95-21.05L60.95-21.05Q61.7-20.15 61.7-19.55L61.7-19.55Q61.7-19.2 61.6-18.95 61.5-18.7 61.1-18.35L61.1-18.35 58.45-16.1 58.1-16.1 56.35-18.6Q55.4-19.9 54.72-20.6 54.05-21.3 52.85-21.3L52.85-21.3Q50.8-21.3 49.9-18.93 49-16.55 49-12.85L49-12.85Q49-9.8 50.57-7.88 52.15-5.95 55.45-5.95L55.45-5.95Q56.9-5.95 58.5-6.2 60.1-6.45 61.65-7.25L61.65-7.25 61.8-7.25 61.8-6.2Q60.55-3.3 57.85-1.4 55.15 0.5 51.45 0.5ZM78.6 0L64.3 0 64.3-0.8 67.75-2.4 67.75-31.8 64.45-33.95 64.45-34.75 75.95-37.5 76.75-37.5 76.75-19.8 76.95-19.8Q78.65-21.45 80.27-22.48 81.9-23.5 84.35-23.5L84.35-23.5Q87.45-23.5 89.42-21.9 91.4-20.3 91.4-17.15L91.4-17.15 91.4-2.4 94.85-0.8 94.85 0 80.55 0 80.55-0.8 82.4-2.4 82.4-15.3Q82.4-16.75 81.62-17.53 80.85-18.3 79.6-18.3L79.6-18.3Q78.9-18.3 78.12-18 77.35-17.7 76.75-17.3L76.75-17.3 76.75-2.4 78.6-0.8 78.6 0ZM102.74 0.45L102.74 0.45Q101.09 0.45 99.67-0.25 98.24-0.95 97.39-2.33 96.54-3.7 96.59-5.65L96.59-5.65Q96.64-7.6 97.27-8.83 97.89-10.05 99.64-10.93 101.39-11.8 104.74-12.7L104.74-12.7 109.44-13.95 109.44-16.65Q109.44-18.7 108.44-19.8 107.44-20.9 105.59-20.9L105.59-20.9Q102.84-20.9 102.84-18.75L102.84-18.75 102.84-15.85 102.69-15.65 98.89-15.65Q97.54-15.65 97.54-17.3L97.54-17.3Q97.54-18.4 98.54-19.4 99.54-20.4 101.09-21.35L101.09-21.35Q103.14-22.6 104.74-23.05 106.34-23.5 108.24-23.5L108.24-23.5Q111.14-23.5 113.44-22.73 115.74-21.95 117.09-20.4 118.44-18.85 118.44-16.5L118.44-16.5 118.44-3.9Q118.84-3.55 119.37-3.35 119.89-3.15 120.59-3.15L120.59-3.15 121.69-3.15 121.89-2.95 121.89-1.9Q121.34-1.1 119.94-0.3 118.54 0.5 116.19 0.5L116.19 0.5Q113.64 0.5 112.07-0.43 110.49-1.35 109.64-3.2L109.64-3.2 109.44-3.2Q108.19-1.65 106.57-0.6 104.94 0.45 102.74 0.45ZM104.94-7.35L104.94-7.35Q104.94-5.8 105.77-5 106.59-4.2 107.99-4.2L107.99-4.2Q108.69-4.2 109.44-4.45L109.44-4.45 109.44-11.65Q107.04-11.1 105.99-10.15 104.94-9.2 104.94-7.35ZM137.19 0L122.89 0 122.89-0.8 126.34-2.4 126.34-17.8 123.04-19.45 123.04-20.25 134.04-23.5 134.84-23.5 135.29-19.8 135.54-19.8Q137.24-21.45 138.87-22.48 140.49-23.5 142.94-23.5L142.94-23.5Q146.04-23.5 148.02-21.9 149.99-20.3 149.99-17.15L149.99-17.15 149.99-2.4 153.44-0.8 153.44 0 139.14 0 139.14-0.8 140.99-2.4 140.99-15.3Q140.99-16.75 140.22-17.53 139.44-18.3 138.19-18.3L138.19-18.3Q137.49-18.3 136.72-18 135.94-17.7 135.34-17.3L135.34-17.3 135.34-2.4 137.19-0.8 137.19 0Z" opacity="1" transform="matrix(1,0,0,1,0,0)" fill="#ff908b" class="undefined-text-0" data-fill-palette-color="primary" id="text-0"></path></svg></g></svg></g></svg></g></svg></g></svg></g></svg></g></svg></g><g><path d="M0 123.6c0-68.262 55.338-123.6 123.6-123.6 55.177 0 101.91 36.156 117.799 86.068h-2.878c-15.789-48.376-61.273-83.329-114.921-83.33-66.75 0-120.862 54.112-120.862 120.862 0 66.75 54.112 120.862 120.862 120.862 53.648 0 99.132-34.953 114.921-83.33h2.878c-15.889 49.912-62.621 86.068-117.799 86.068-68.262 0-123.6-55.338-123.6-123.6z" fill="#ff908b" stroke="transparent" data-fill-palette-color="tertiary"></path></g></svg></g><defs></defs></svg><rect width="395.52" height="247.2" fill="none" stroke="none" visibility="hidden"></rect></g></svg></g></svg>